<?xml version="1.0" standalone="no"?>
<!DOCTYPE svg PUBLIC "-//W3C//DTD SVG 20010904//EN"
 "http://www.w3.org/TR/2001/REC-SVG-20010904/DTD/svg10.dtd">
<svg version="1.0" xmlns="http://www.w3.org/2000/svg"
 width="48.000000pt" height="48.000000pt" viewBox="0 0 48.000000 48.000000"
 preserveAspectRatio="xMidYMid meet">

<g transform="translate(0.000000,48.000000) scale(0.100000,-0.100000)"
fill="#000000" stroke="none">
<path d="M180 360 c-11 -11 -20 -27 -20 -35 0 -11 -11 -15 -40 -15 -53 0 -94
-22 -109 -58 -7 -16 -11 -61 -9 -103 3 -65 5 -74 23 -77 11 -2 27 -17 35 -35
14 -29 19 -32 60 -32 41 0 46 3 60 32 14 30 19 33 60 33 41 0 46 -3 60 -33 14
-29 19 -32 60 -32 41 0 46 3 60 32 10 22 22 33 38 33 22 0 22 2 22 139 0 176
5 171 -162 171 -105 0 -120 -2 -138 -20z m-42 -137 c3 -33 3 -33 -42 -33 -39
0 -46 3 -46 19 0 29 29 53 59 49 21 -2 27 -9 29 -35z"/>
</g>
</svg>
